<svg width="90" height="90" viewBox="0 0 90 90" fill="none" xmlns="http://www.w3.org/2000/svg">
<path d="M45 45.9375C42.2187 45.9375 39.4999 45.1128 37.1873 43.5675C34.8747 42.0223 33.0723 39.8261 32.008 37.2565C30.9436 34.6869 30.6651 31.8594 31.2077 29.1315C31.7503 26.4037 33.0896 23.898 35.0563 21.9313C37.023 19.9646 39.5287 18.6253 42.2566 18.0827C44.9844 17.5401 47.8119 17.8186 50.3815 18.883C52.9511 19.9473 55.1473 21.7497 56.6926 24.0623C58.2378 26.3749 59.0625 29.0937 59.0625 31.875C59.0625 35.6046 57.5809 39.1815 54.9437 41.8187C52.3065 44.4559 48.7296 45.9375 45 45.9375ZM45 23.4375C43.3312 23.4375 41.6999 23.9324 40.3124 24.8595C38.9248 25.7866 37.8434 27.1044 37.2048 28.6461C36.5662 30.1879 36.3991 31.8844 36.7246 33.5211C37.0502 35.1578 37.8538 36.6612 39.0338 37.8412C40.2138 39.0212 41.7172 39.8248 43.3539 40.1504C44.9906 40.4759 46.6871 40.3089 48.2289 39.6702C49.7707 39.0316 51.0884 37.9502 52.0155 36.5626C52.9427 35.1751 53.4375 33.5438 53.4375 31.875C53.4375 29.6372 52.5486 27.4911 50.9662 25.9088C49.3839 24.3265 47.2378 23.4375 45 23.4375Z" fill="#FF4E2E"/>
<path d="M71.25 72.1875C70.5071 72.1778 69.7974 71.8784 69.272 71.353C68.7466 70.8276 68.4472 70.1179 68.4375 69.375C68.4375 62.0625 64.4625 57.1875 45 57.1875C25.5375 57.1875 21.5625 62.0625 21.5625 69.375C21.5625 70.1209 21.2662 70.8363 20.7387 71.3637C20.2113 71.8912 19.4959 72.1875 18.75 72.1875C18.0041 72.1875 17.2887 71.8912 16.7613 71.3637C16.2338 70.8363 15.9375 70.1209 15.9375 69.375C15.9375 51.5625 36.3 51.5625 45 51.5625C53.7 51.5625 74.0625 51.5625 74.0625 69.375C74.0528 70.1179 73.7534 70.8276 73.228 71.353C72.7026 71.8784 71.9929 72.1778 71.25 72.1875Z" fill="#FF4E2E"/>
<path d="M34.3333 63H29.75C27.6789 63 26 64.6789 26 66.75V84.75C26 85.1642 26.3358 85.5 26.75 85.5H62.75C63.1642 85.5 63.5 85.1642 63.5 84.75V66.75C63.5 64.6789 61.8211 63 59.75 63H55.1667M34.3333 63V68.625C34.3333 69.6605 35.1728 70.5 36.2083 70.5H53.2917C54.3272 70.5 55.1667 69.6605 55.1667 68.625V63M34.3333 63H55.1667" stroke="#FF4E2E" stroke-width="3.5"/>
</svg>
