<svg width="154" height="38" viewBox="0 0 154 38" fill="none" xmlns="http://www.w3.org/2000/svg">
<path d="M10.8906 21.8906H5.09375V18.2344H10.8906C11.7865 18.2344 12.5156 18.0885 13.0781 17.7969C13.6406 17.4948 14.0521 17.0781 14.3125 16.5469C14.5729 16.0156 14.7031 15.4167 14.7031 14.75C14.7031 14.0729 14.5729 13.4427 14.3125 12.8594C14.0521 12.276 13.6406 11.8073 13.0781 11.4531C12.5156 11.099 11.7865 10.9219 10.8906 10.9219H6.71875V30H2.03125V7.25H10.8906C12.6719 7.25 14.1979 7.57292 15.4688 8.21875C16.75 8.85417 17.7292 9.73438 18.4062 10.8594C19.0833 11.9844 19.4219 13.2708 19.4219 14.7188C19.4219 16.1875 19.0833 17.4583 18.4062 18.5312C17.7292 19.6042 16.75 20.4323 15.4688 21.0156C14.1979 21.599 12.6719 21.8906 10.8906 21.8906ZM27.125 13.0938V30H22.6094V13.0938H27.125ZM22.3281 8.6875C22.3281 8.03125 22.5573 7.48958 23.0156 7.0625C23.474 6.63542 24.0885 6.42188 24.8594 6.42188C25.6198 6.42188 26.2292 6.63542 26.6875 7.0625C27.1562 7.48958 27.3906 8.03125 27.3906 8.6875C27.3906 9.34375 27.1562 9.88542 26.6875 10.3125C26.2292 10.7396 25.6198 10.9531 24.8594 10.9531C24.0885 10.9531 23.474 10.7396 23.0156 10.3125C22.5573 9.88542 22.3281 9.34375 22.3281 8.6875ZM40.8281 26.3125V6H45.3594V30H41.2812L40.8281 26.3125ZM30.1406 21.75V21.4219C30.1406 20.1302 30.2865 18.9583 30.5781 17.9062C30.8698 16.8438 31.2969 15.9323 31.8594 15.1719C32.4219 14.4115 33.1146 13.8229 33.9375 13.4062C34.7604 12.9896 35.6979 12.7812 36.75 12.7812C37.7396 12.7812 38.6042 12.9896 39.3438 13.4062C40.0938 13.8229 40.7292 14.4167 41.25 15.1875C41.7812 15.9479 42.2083 16.849 42.5312 17.8906C42.8542 18.9219 43.0885 20.0521 43.2344 21.2812V22C43.0885 23.1771 42.8542 24.2708 42.5312 25.2812C42.2083 26.2917 41.7812 27.1771 41.25 27.9375C40.7292 28.6875 40.0938 29.2708 39.3438 29.6875C38.5938 30.1042 37.7188 30.3125 36.7188 30.3125C35.6667 30.3125 34.7292 30.099 33.9062 29.6719C33.0938 29.2448 32.4062 28.6458 31.8438 27.875C31.2917 27.1042 30.8698 26.1979 30.5781 25.1562C30.2865 24.1146 30.1406 22.9792 30.1406 21.75ZM34.6406 21.4219V21.75C34.6406 22.4479 34.6927 23.099 34.7969 23.7031C34.9115 24.3073 35.0938 24.8438 35.3438 25.3125C35.6042 25.7708 35.9375 26.1302 36.3438 26.3906C36.7604 26.6406 37.2656 26.7656 37.8594 26.7656C38.6302 26.7656 39.2656 26.5938 39.7656 26.25C40.2656 25.8958 40.6458 25.4115 40.9062 24.7969C41.1771 24.1823 41.3333 23.474 41.375 22.6719V20.625C41.3438 19.9688 41.25 19.3802 41.0938 18.8594C40.9479 18.3281 40.7292 17.875 40.4375 17.5C40.1562 17.125 39.8021 16.8333 39.375 16.625C38.9583 16.4167 38.4635 16.3125 37.8906 16.3125C37.3073 16.3125 36.8073 16.4479 36.3906 16.7188C35.974 16.9792 35.6354 17.3385 35.375 17.7969C35.125 18.2552 34.9375 18.7969 34.8125 19.4219C34.6979 20.0365 34.6406 20.7031 34.6406 21.4219ZM56.6562 30.3125C55.3438 30.3125 54.1667 30.1042 53.125 29.6875C52.0833 29.2604 51.1979 28.6719 50.4688 27.9219C49.75 27.1719 49.1979 26.3021 48.8125 25.3125C48.4271 24.3125 48.2344 23.25 48.2344 22.125V21.5C48.2344 20.2188 48.4167 19.0469 48.7812 17.9844C49.1458 16.9219 49.6667 16 50.3438 15.2188C51.0312 14.4375 51.8646 13.8385 52.8438 13.4219C53.8229 12.9948 54.9271 12.7812 56.1562 12.7812C57.3542 12.7812 58.4167 12.9792 59.3438 13.375C60.2708 13.7708 61.0469 14.3333 61.6719 15.0625C62.3073 15.7917 62.7865 16.6667 63.1094 17.6875C63.4323 18.6979 63.5938 19.8229 63.5938 21.0625V22.9375H50.1562V19.9375H59.1719V19.5938C59.1719 18.9688 59.0573 18.4115 58.8281 17.9219C58.6094 17.4219 58.276 17.026 57.8281 16.7344C57.3802 16.4427 56.8073 16.2969 56.1094 16.2969C55.5156 16.2969 55.0052 16.4271 54.5781 16.6875C54.151 16.9479 53.8021 17.3125 53.5312 17.7812C53.2708 18.25 53.0729 18.8021 52.9375 19.4375C52.8125 20.0625 52.75 20.75 52.75 21.5V22.125C52.75 22.8021 52.8438 23.4271 53.0312 24C53.2292 24.5729 53.5052 25.0677 53.8594 25.4844C54.224 25.901 54.6615 26.224 55.1719 26.4531C55.6927 26.6823 56.2812 26.7969 56.9375 26.7969C57.75 26.7969 58.5052 26.6406 59.2031 26.3281C59.9115 26.0052 60.5208 25.5208 61.0312 24.875L63.2188 27.25C62.8646 27.7604 62.3802 28.25 61.7656 28.7188C61.1615 29.1875 60.4323 29.5729 59.5781 29.875C58.724 30.1667 57.75 30.3125 56.6562 30.3125ZM69.5625 7.25L74.3125 17.625L79.0625 7.25H84.1719L76.6875 21.7188V30H71.9375V21.7188L64.4375 7.25H69.5625ZM94.0312 26.1875V18.6562C94.0312 18.1146 93.9427 17.651 93.7656 17.2656C93.5885 16.8698 93.3125 16.5625 92.9375 16.3438C92.5729 16.125 92.099 16.0156 91.5156 16.0156C91.0156 16.0156 90.5833 16.1042 90.2188 16.2812C89.8542 16.4479 89.5729 16.6927 89.375 17.0156C89.1771 17.3281 89.0781 17.6979 89.0781 18.125H84.5781C84.5781 17.4062 84.7448 16.724 85.0781 16.0781C85.4115 15.4323 85.8958 14.8646 86.5312 14.375C87.1667 13.875 87.9219 13.4844 88.7969 13.2031C89.6823 12.9219 90.6719 12.7812 91.7656 12.7812C93.0781 12.7812 94.2448 13 95.2656 13.4375C96.2865 13.875 97.0885 14.5312 97.6719 15.4062C98.2656 16.2812 98.5625 17.375 98.5625 18.6875V25.9219C98.5625 26.849 98.6198 27.6094 98.7344 28.2031C98.849 28.7865 99.0156 29.2969 99.2344 29.7344V30H94.6875C94.4688 29.5417 94.3021 28.9688 94.1875 28.2812C94.0833 27.5833 94.0312 26.8854 94.0312 26.1875ZM94.625 19.7031L94.6562 22.25H92.1406C91.5469 22.25 91.0312 22.3177 90.5938 22.4531C90.1562 22.5885 89.7969 22.7812 89.5156 23.0312C89.2344 23.2708 89.026 23.5521 88.8906 23.875C88.7656 24.1979 88.7031 24.5521 88.7031 24.9375C88.7031 25.3229 88.7917 25.6719 88.9688 25.9844C89.1458 26.2865 89.401 26.526 89.7344 26.7031C90.0677 26.8698 90.4583 26.9531 90.9062 26.9531C91.5833 26.9531 92.1719 26.8177 92.6719 26.5469C93.1719 26.276 93.5573 25.9427 93.8281 25.5469C94.1094 25.151 94.2552 24.776 94.2656 24.4219L95.4531 26.3281C95.2865 26.7552 95.0573 27.1979 94.7656 27.6562C94.4844 28.1146 94.125 28.5469 93.6875 28.9531C93.25 29.349 92.724 29.6771 92.1094 29.9375C91.4948 30.1875 90.7656 30.3125 89.9219 30.3125C88.849 30.3125 87.875 30.099 87 29.6719C86.1354 29.2344 85.4479 28.6354 84.9375 27.875C84.4375 27.1042 84.1875 26.2292 84.1875 25.25C84.1875 24.3646 84.3542 23.5781 84.6875 22.8906C85.0208 22.2031 85.5104 21.625 86.1562 21.1562C86.8125 20.6771 87.6302 20.3177 88.6094 20.0781C89.5885 19.8281 90.724 19.7031 92.0156 19.7031H94.625Z" fill="#FF4E2E"/>
<g clip-path="url(#clip0_52_647)">
<g filter="url(#filter0_i_52_647)">
<rect x="109.857" y="8" width="43.7143" height="27.9286" rx="6.07143" fill="#FF6D33"/>
</g>
<g filter="url(#filter1_i_52_647)">
<g clip-path="url(#clip1_52_647)">
<g filter="url(#filter2_d_52_647)">
<ellipse cx="115.464" cy="20.0718" rx="5.46429" ry="4.35678" fill="#FFD700"/>
</g>
<g filter="url(#filter3_d_52_647)">
<ellipse cx="126.393" cy="20.0718" rx="5.46429" ry="4.35678" fill="#FFD700"/>
</g>
<g filter="url(#filter4_d_52_647)">
<ellipse cx="137.321" cy="20.0718" rx="5.46429" ry="4.35678" fill="#FFD700"/>
</g>
<g filter="url(#filter5_d_52_647)">
<ellipse cx="148.25" cy="20.0718" rx="5.46429" ry="4.35678" fill="#FFD700"/>
</g>
<rect x="110" y="14" width="44" height="6" fill="#FFD700"/>
<ellipse cx="115" cy="15.5" rx="6" ry="4.5" fill="#FF4E2E"/>
<ellipse cx="148" cy="15.5" rx="6" ry="4.5" fill="#FF4E2E"/>
<ellipse cx="126" cy="15.5" rx="6" ry="4.5" fill="#FF4E2E"/>
<ellipse cx="137" cy="15.5" rx="6" ry="4.5" fill="#FF4E2E"/>
<rect x="110" y="2" width="43.7143" height="12.8616" fill="#FF4E2E"/>
</g>
</g>
</g>
<defs>
<filter id="filter0_i_52_647" x="109.857" y="8" width="43.7143" height="27.9286" filterUnits="userSpaceOnUse" color-interpolation-filters="sRGB">
<feFlood flood-opacity="0" result="BackgroundImageFix"/>
<feBlend mode="normal" in="SourceGraphic" in2="BackgroundImageFix" result="shape"/>
<feColorMatrix in="SourceAlpha" type="matrix" values="0 0 0 0 0 0 0 0 0 0 0 0 0 0 0 0 0 0 127 0" result="hardAlpha"/>
<feOffset/>
<feGaussianBlur stdDeviation="1"/>
<feComposite in2="hardAlpha" operator="arithmetic" k2="-1" k3="1"/>
<feColorMatrix type="matrix" values="0 0 0 0 0 0 0 0 0 0 0 0 0 0 0 0 0 0 0.6 0"/>
<feBlend mode="normal" in2="shape" result="effect1_innerShadow_52_647"/>
</filter>
<filter id="filter1_i_52_647" x="110" y="2" width="44" height="23" filterUnits="userSpaceOnUse" color-interpolation-filters="sRGB">
<feFlood flood-opacity="0" result="BackgroundImageFix"/>
<feBlend mode="normal" in="SourceGraphic" in2="BackgroundImageFix" result="shape"/>
<feColorMatrix in="SourceAlpha" type="matrix" values="0 0 0 0 0 0 0 0 0 0 0 0 0 0 0 0 0 0 127 0" result="hardAlpha"/>
<feOffset/>
<feGaussianBlur stdDeviation="1"/>
<feComposite in2="hardAlpha" operator="arithmetic" k2="-1" k3="1"/>
<feColorMatrix type="matrix" values="0 0 0 0 0 0 0 0 0 0 0 0 0 0 0 0 0 0 0.6 0"/>
<feBlend mode="normal" in2="shape" result="effect1_innerShadow_52_647"/>
</filter>
<filter id="filter2_d_52_647" x="109.592" y="15.715" width="11.7457" height="9.53065" filterUnits="userSpaceOnUse" color-interpolation-filters="sRGB">
<feFlood flood-opacity="0" result="BackgroundImageFix"/>
<feColorMatrix in="SourceAlpha" type="matrix" values="0 0 0 0 0 0 0 0 0 0 0 0 0 0 0 0 0 0 127 0" result="hardAlpha"/>
<feOffset dy="0.408545"/>
<feGaussianBlur stdDeviation="0.204272"/>
<feComposite in2="hardAlpha" operator="out"/>
<feColorMatrix type="matrix" values="0 0 0 0 0 0 0 0 0 0 0 0 0 0 0 0 0 0 0.25 0"/>
<feBlend mode="normal" in2="BackgroundImageFix" result="effect1_dropShadow_52_647"/>
<feBlend mode="normal" in="SourceGraphic" in2="effect1_dropShadow_52_647" result="shape"/>
</filter>
<filter id="filter3_d_52_647" x="120.52" y="15.715" width="11.7457" height="9.53065" filterUnits="userSpaceOnUse" color-interpolation-filters="sRGB">
<feFlood flood-opacity="0" result="BackgroundImageFix"/>
<feColorMatrix in="SourceAlpha" type="matrix" values="0 0 0 0 0 0 0 0 0 0 0 0 0 0 0 0 0 0 127 0" result="hardAlpha"/>
<feOffset dy="0.408545"/>
<feGaussianBlur stdDeviation="0.204272"/>
<feComposite in2="hardAlpha" operator="out"/>
<feColorMatrix type="matrix" values="0 0 0 0 0 0 0 0 0 0 0 0 0 0 0 0 0 0 0.25 0"/>
<feBlend mode="normal" in2="BackgroundImageFix" result="effect1_dropShadow_52_647"/>
<feBlend mode="normal" in="SourceGraphic" in2="effect1_dropShadow_52_647" result="shape"/>
</filter>
<filter id="filter4_d_52_647" x="131.449" y="15.715" width="11.7457" height="9.53065" filterUnits="userSpaceOnUse" color-interpolation-filters="sRGB">
<feFlood flood-opacity="0" result="BackgroundImageFix"/>
<feColorMatrix in="SourceAlpha" type="matrix" values="0 0 0 0 0 0 0 0 0 0 0 0 0 0 0 0 0 0 127 0" result="hardAlpha"/>
<feOffset dy="0.408545"/>
<feGaussianBlur stdDeviation="0.204272"/>
<feComposite in2="hardAlpha" operator="out"/>
<feColorMatrix type="matrix" values="0 0 0 0 0 0 0 0 0 0 0 0 0 0 0 0 0 0 0.25 0"/>
<feBlend mode="normal" in2="BackgroundImageFix" result="effect1_dropShadow_52_647"/>
<feBlend mode="normal" in="SourceGraphic" in2="effect1_dropShadow_52_647" result="shape"/>
</filter>
<filter id="filter5_d_52_647" x="142.377" y="15.715" width="11.7457" height="9.53065" filterUnits="userSpaceOnUse" color-interpolation-filters="sRGB">
<feFlood flood-opacity="0" result="BackgroundImageFix"/>
<feColorMatrix in="SourceAlpha" type="matrix" values="0 0 0 0 0 0 0 0 0 0 0 0 0 0 0 0 0 0 127 0" result="hardAlpha"/>
<feOffset dy="0.408545"/>
<feGaussianBlur stdDeviation="0.204272"/>
<feComposite in2="hardAlpha" operator="out"/>
<feColorMatrix type="matrix" values="0 0 0 0 0 0 0 0 0 0 0 0 0 0 0 0 0 0 0.25 0"/>
<feBlend mode="normal" in2="BackgroundImageFix" result="effect1_dropShadow_52_647"/>
<feBlend mode="normal" in="SourceGraphic" in2="effect1_dropShadow_52_647" result="shape"/>
</filter>
<clipPath id="clip0_52_647">
<rect width="43.7143" height="34" fill="white" transform="translate(110 2)"/>
</clipPath>
<clipPath id="clip1_52_647">
<path d="M110 7C110 4.23858 112.239 2 115 2H149C151.761 2 154 4.23858 154 7V25H110V7Z" fill="white"/>
</clipPath>
</defs>
</svg>
